<svg xmlns="http://www.w3.org/2000/svg" height="800" width="1200" viewBox="-149.9946 -47.375 1299.9532 284.25"><path d="M974.358 35.165l-27.52 77.503-25.67-77.503h-26.243l39.908 104.924-.319.699s-8.046 21.39-15.325 26.596c-5.619 2.792-18.709 2.602-23.69 2.285v19.804c8.685 0 29.054.571 35.567-3.555 8.237-5.141 10.089-7.3 15.708-18.534 6.13-12.251 53.19-132.219 53.19-132.219zM845.886 52.621V35.165h-24.584v105.686h24.584v-40.243c0-7.046.702-13.266 2.618-18.408 7.407-19.233 28.031-24.692 38.759-26.279l-8.43-20.185c-8.62 1.46-23.689 5.586-32.947 16.885zm-423.603 69.568c-18.9 0-32.118-15.17-32.118-34.213 0-18.598 13.026-33.832 30.905-33.832 12.388 0 20.305 5.396 27.84 13.203l15.261-16.186c-9.961-10.79-22.604-18.217-42.91-18.217-32.118 0-55.68 25.2-55.68 55.413 0 30.214 23.562 54.843 55.489 54.843 20.944 0 33.331-8.189 43.931-19.805l-14.878-14.408c-7.726 7.807-16.282 13.202-27.84 13.202zm377.31-54.08a73.846 73.846 0 013.192 25.009c-.064 1.142-.192 2.348-.32 3.49h-78.922c1.34 8.634 4.853 15.298 10.472 19.932 5.619 4.634 12.451 6.919 20.433 6.919 6.13 0 11.366-1.08 15.835-3.174 4.917-2.412 9.323-5.586 13.218-9.394l14.43 12.631a59.644 59.644 0 01-18.389 14.41c-7.088 3.617-15.644 5.395-25.541 5.395-7.407.063-14.75-1.333-21.646-4a52.903 52.903 0 01-17.496-11.234 52.335 52.335 0 01-11.685-17.33c-2.874-6.727-4.278-14.218-4.278-22.342v-.445c-.064-7.3 1.277-14.535 3.895-21.39 2.426-6.475 6.13-12.378 10.855-17.52 4.66-4.95 10.28-9.013 16.538-11.806 6.64-2.92 13.856-4.38 21.135-4.316 8.556 0 16.027 1.523 22.476 4.633 6.45 3.047 11.813 7.236 16.091 12.378a51.609 51.609 0 019.706 18.154zm-21.136 9.965c-.447-3.872-1.277-4.95-2.618-8.378-1.277-3.238-3.13-6.284-5.492-8.887-2.298-2.539-5.108-4.507-8.237-5.903a26.672 26.672 0 00-10.855-2.095c-7.598 0-13.856 2.54-18.837 7.68-4.916 5.142-7.981 9.331-9.067 17.583zM641.683 112.86l-28.862-77.694h-26.435l44.123 106.511h22.157l43.93-106.51H670.8zm-60.597-46.4c2.874 6.791 4.342 14.027 4.278 21.327v.38c0 7.49-1.468 14.537-4.342 21.201a55.04 55.04 0 01-12.004 17.52c-5.236 5.078-11.366 9.14-18.198 11.933-7.28 2.983-15.07 4.507-22.987 4.38-15.261.127-29.884-5.65-40.803-15.996-5.108-5.015-9.13-10.918-11.876-17.456-2.874-6.728-4.278-13.964-4.278-21.2v-.445c0-7.617 1.468-14.726 4.342-21.39a55.04 55.04 0 0112.004-17.52c10.855-10.6 25.605-16.44 40.994-16.313 8.3 0 15.9 1.396 22.86 4.316 13.6 5.523 24.391 16.06 30.01 29.262zm-20.305 21.708c0-4.697-.83-9.077-2.426-13.203-1.533-3.999-3.832-7.68-6.833-10.79a31.465 31.465 0 00-10.408-7.3c-4.214-1.841-8.748-2.793-13.345-2.73-4.853 0-9.323.889-13.282 2.73-4.022 1.84-7.407 4.189-10.28 7.236a30.38 30.38 0 00-6.513 10.6 36.7 36.7 0 00-2.235 13.14v.38c0 4.507.83 8.887 2.426 13.013 1.597 4.125 3.896 7.807 6.833 10.917 2.873 3.11 6.385 5.586 10.408 7.363 4.023 1.778 8.365 2.73 13.09 2.73 9.067.19 17.751-3.491 23.817-10.03 2.81-3.046 4.98-6.664 6.513-10.726 1.533-4.126 2.235-8.506 2.235-12.886zm-217.165.317a50.007 50.007 0 00-10.663-5.903c-3.96-1.587-7.854-2.983-11.813-4.19-3.001-1.015-6.002-2.03-9.067-2.983a47.893 47.893 0 01-7.727-3.11 19.022 19.022 0 01-5.427-3.808c-1.341-1.333-2.044-3.047-2.044-4.888v-.38c0-3.048 1.341-5.587 3.96-7.618 2.617-1.968 6.32-2.983 11.046-2.983 4.47 0 9.323.888 14.622 2.73 5.3 1.776 10.472 4.252 15.644 7.299l9.77-17.202a73.301 73.301 0 00-18.9-8.823 68.177 68.177 0 00-20.561-3.174c-5.3 0-10.28.762-14.942 2.222-4.47 1.333-8.62 3.491-12.196 6.41-3.448 2.73-6.194 6.221-8.11 10.093-1.979 3.936-2.937 8.443-2.937 13.52v.381c0 5.078 1.022 9.331 3.065 12.822 2.044 3.492 4.662 6.348 7.854 8.696 3.193 2.35 6.769 4.253 10.792 5.713 4.022 1.46 7.981 2.73 11.94 3.809l9.003 2.666c2.938.888 5.492 1.84 7.727 2.983 2.235 1.143 4.022 2.412 5.3 3.872 1.277 1.46 1.979 3.3 1.915 5.205v.38c.064 3.301-1.532 6.412-4.342 8.316-2.937 2.095-7.024 3.11-12.324 3.11a50.502 50.502 0 01-17.368-3.3c-6.385-2.412-12.387-5.65-17.815-9.712l-10.983 16.376a74.824 74.824 0 0022.094 11.807c7.534 2.602 15.452 3.935 23.498 3.999 5.555 0 10.79-.698 15.644-2.095 4.853-1.396 9.13-3.491 12.707-6.22 3.64-2.73 6.385-6.158 8.428-10.283 2.043-4.126 3.065-9.014 3.065-14.6v-.38c0-4.825-1.022-8.887-3.065-12.188-1.98-3.364-4.597-6.22-7.79-8.569zm-115.894 52.367h24.584V35.165h-24.584zm-14.239-71.029c0 39.609-30.905 70.204-75.602 70.204H94.588c8.748-5.776 16.028-13.457 21.264-22.407h22.029c29.883 0 49.422-19.804 49.422-47.416 0-27.611-19.475-47.86-49.422-47.86h-28.032v20.63c-4.086-5.078-8.94-9.522-14.367-13.203-3.384-2.285-6.896-4.19-10.663-5.84V0h53.062c44.697 0 75.602 30.214 75.602 69.822z" fill="#727373"/><path d="M36.616 40.783c-.499-.286-1.003.05-1.468-.04-.607-.117-.988.188-1.319.574-.405.465-.781.988-1.156 1.502-.282.376-.549.791-.346 1.306.237.059.479.078.682.188.203.108.371.267.559.425.697-.415 1.418-.425 2.135-.386.89.069 1.74-.029 2.575-.375.257-.1.544-.089.816-.129.178.197.331.386.484.573.276.336.805 0 .983.257.197.307.287.633.761.573 0-.188.02-.386-.005-.573-.03-.139-.104-.257-.163-.396h-.049c-.064.04-.133.08-.208.119-.005-.05-.015-.1-.015-.159.079.021.153.021.228.03.005-.01.02-.01.04-.03-.227-.236-.445-.493-.707-.789.251-.248.489-.446.687-.693.39-.474.257-1.027-.341-1.235-.321-.128-.687-.128-.993-.188-.089-.307-.079-.711-.237-.791-.455-.267-.563-.771-.929-1.077-.296-.267-.435-.652-.5-1.097.203-.129.391-.277.593-.366.415-.188.47-.484.391-.929-.391.247-.747.484-1.132.711-.222-.168-.4-.297-.627-.464-.188.553-.677.118-1.063.296.088.268.232.515.227.771-.01.237-.173.483-.287.771.544.099.999.178 1.507.258-.237.435-.396.79-.623 1.106-.094.148-.396.307-.484.257m3.172 1.711c.079-.237.306-.237.484-.208.154.039.272.208.52.396-.307.148-.484.306-.682.336-.193.038-.396-.327-.322-.524m-1.403-2.64c.069.029.138.139.222.237-.104.099-.173.207-.247.217-.173.04-.292-.079-.282-.237.005-.187.144-.276.307-.217m-2.565-6.216c.148.138.301.089.464 0-.01-.01-.01-.01-.02-.01h-.435c-.005 0-.005 0-.015.01m4.122 19.194c-.326-.415-.375-.859-.4-1.334-.005-.138.079-.336-.223-.415-.222.949-.39 1.858.391 2.648.415-.415.494-.552.232-.899m-1.25-3.608c-.292-.178-.539-.108-.801.01-.465.218-.568.583-.519 1.038.119-.218.307-.405.534-.277.747.436 1.167-.039 1.73-.464-.385-.109-.692-.178-.944-.307M55.95 64.525c-.267-.296-.307-.296-.909-.315.282.157.509.434.909.315M33.888 34.368h-.005c0 .069 0 .129.005.208.005.01.02.01.03.01l-.03.029c.158-.078.322-.158.485-.257-.01 0-.01 0-.02-.02h-.416c-.019.001-.029.02-.049.03m-2.234.86c.02-.01.04-.02.074-.04-.029.021-.074.03-.108.04.02 0 .02-.01.039 0m6.989-2.747c-.109.019-.208.078-.312.117.242-.078.479-.188.736-.257-.142.06-.286.081-.424.14m16.531-2.531c-4.151 0-8.184.475-12.074 1.335.222-.03.43-.09.652-.119.86-.148 1.735-.198 2.604-.228 1.048-.039 2.081-.02 3.128-.02.277 0 .563 0 .831.049.148.03.405.188.385.237-.119.644.776.919.539 1.621.598.317 1.201.613 1.799.919.212.109.41.237.603.396.118.079.089.347-.05.396-.029.02-.069.059-.104.059-1.146.04-2.234.524-3.425.355-1.226-.167-2.466-.197-3.702-.296-.119-.01-.242 0-.346-.06-.924-.444-1.938-.425-2.916-.554-1.107-.138-2.239-.089-3.351-.06-.346 0-.722.139-1.028.297-.895.534-1.848.752-2.797.633-.386.276-.43.554-.341.89.069.039.139.129.193.119 1.235-.139 2.466-.287 3.691-.415.203-.03.42-.08.604-.021.919.258 1.818.03 2.723-.06.9-.068 1.003 0 .949.949.479.287.944.573 1.151 1.245-.351.069-.652.119-.949.188-.312.068-.618.147-.924.217-.825.188-1.65.316-2.491.248-.41-.021-.815.01-1.112.325-.074.069-.094.237-.044.326.044.07.188.119.292.148.069.01.168-.02.227-.068.563-.494 1.261-.426 1.938-.465.395-.01.786-.05 1.27-.09.213.139.5.356.82.495.217.078.47.099.707.078.42-.009.632-.256.632-.682.005-.118-.04-.237-.04-.346 0-.089.05-.158.089-.257.104-.021.218-.06.332-.039.632.078 1.265.167 1.897.296.544.118 1.087.247 1.616.435.509.148 1.018.257 1.527.1.875-.287 1.735.068 2.6.029.578.336 1.176.683 1.754 1.009.237.148.459.315.711.493 1.092-.563 2.006.04 2.956.444.124.04.217.209.316.327.134.168.04.425-.158.484-.119.03-.237.069-.346.059-.356-.059-.608.069-.84.347-.104.108-.39.227-.514.158-.465-.228-.855-.021-1.255.129-.267.108-.509.217-.746.315-.445-.207-.628-.514-.672-.949a2.006 2.006 0 00-.647-1.324c-.208.415-.316.762-.529 1.009-.197.237-.504.385-.771.573.128.139.232.276.346.415-.049.079-.079.178-.128.218-.257.107-.519.197-.756.286-.02.129-.059.207-.04.267.108.287.237.573.381.93a88.59 88.59 0 002.09-.336c.094-.247.163-.475.271-.752.4.139.756.258 1.152.396.114.554-.188.949-.494 1.285-.494.573-1.083 1.067-1.35 1.818-.079.247-.355.317-.607.247-.302-.108-.578-.247-.934-.404-.479.514-.959.978-1.399 1.473-.247.286-.069.722.296.859.529.218.529.218.722.702-.875.286-1.29 1.116-2.036 1.65 0 .673.029 1.345-.01 2.017-.04.751.02 1.423.756 1.878.257.148.272.465.109.751-.099.178-.153.436-.306.494-.647.355-.781 1.088-1.201 1.602-.455.554-.731 1.314-.974 2.036-.276.781-.069 1.522.618 2.026.657.475 1.137 1.116 1.745 1.631.568.465.722 1.127.86 1.799.029.139-.02.316-.069.455-.217.493-.598.83-1.063 1.027-.326-.355.163-.504.129-.81-.124-.109-.267-.248-.44-.337-.138-.079-.306-.099-.445-.158-.89-.484-1.759-.988-1.977-2.105-.4-.148-.756-.307-1.176-.484-.312.237-.617.475-.979.752-.192-.06-.42-.179-.647-.179-.311 0-.642.03-.924.158-.47.198-.9.495-1.404.771-.02.336-.04.691-.069 1.067-.03.04-.089.118-.144.139-.262.099-.539.148-.776.276-.356.198-.722.257-1.142.287-.583.029-1.171.197-1.735.365a1.437 1.437 0 00-.677.475c-.5.613-.969 1.265-1.429 1.938-.336.484-.425 1.008-.059 1.562.296.455.331.939.271 1.482-.099.949.287 1.819.613 2.669.178.455.583.84.968 1.186.465.436.994.791 1.522 1.147.153.099.371.118.568.118.346.02.697.02 1.226.02.534-.385 1.23-.85 1.903-1.344.509-.386.781-.899.632-1.562-.049-.198-.124-.386-.153-.584-.06-.346.015-.661.287-.859.756-.604 1.478-1.235 2.441-1.493.312-.068.583.011.702.308.153.385.464.771.079 1.215-.079.099-.069.316-.025.445.168.554.312 1.087.248 1.66-.04.355.321.416.43.652-.089.465-.277.91-.193 1.404.628.079.954-.524 1.488-.613l-.02-.01h.009c-.074-.405.06-.604.445-.682.024 0 .069.019.178.028-.01.13-.02.268-.02.406.02 0 .02 0 .03-.021l-.03.03c.153-.069.316-.099.44-.188.835-.483 1.686-.425 2.62-.098.114.188.365.415.375.662.02.959.603 1.72.736 2.629.124.82.677 1.274 1.404 1.463.618.168 1.26.228 1.893.326.292-.297.583-.524.771-.811.588-.949 1.473-.988 2.426-.89.228.029.45.119.628.168.4-.139.554-.444.623-.741.06-.276.119-.573.069-.851-.208-1.127.371-1.858 1.226-2.372.494-.296.717-.731.983-1.166.134-.237.228-.523.42-.691.153-.129.464-.159.667-.1.272.069.307.326.232.584l-.138.523c.439-.04.583-.326.746-.573.049-.415-.237-.851.029-1.266.391-.06.475.396.89.515.563-.1 1.246-.237 1.809.355.237-.139.455-.237.652-.376.445-.276.899-.494 1.463-.346.227.069.475.02.632-.218.158-.197.198-.385.119-.662-.079-.316.129-.554.435-.563 1.265-.128 1.878-.484 2.57-1.492.455.099.089.465.218.672.128.247.178.534.276.83.267.198.554.416.89.673.257.02.573.029.89.049.533 0 1.018.168 1.462.455.158.108.336.207.524.276 1.117.366 1.206.386 2.234-.276.84-.523 1.73-.523 2.659-.426.276.04.534.169.81.219.554.078.949.365 1.246.83.198.296.455.592.761.751.623.315.999.771 1.187 1.423.642.237 1.265.218 1.898.099.464-.089.958-.099 1.413-.217.534-.108.939.068 1.266.404.375-.068.682-.099.978-.188.386-.089.821-.157 1.117-.375.632-.436 1.216-.376 1.819-.039.632.354 1.245.75 1.947.217.722.811 1.117 1.621 1.285 2.53.188 1.009.079 1.997-.069 2.984-.079.515-.138 1.029-.217 1.543-.04.315-.029.652-.119.938-.257.891-.128 1.739.03 2.6.148.831.385 1.681.316 2.491-.079 1.067-.02 2.145-.267 3.202-.099.336-.119.702-.198 1.048-.178.83-.356 1.621-1.067 2.194-.445.356-.811.751-1.038 1.295a.985.985 0 01-.247.405c-.633.494-.87 1.227-1.196 1.918-.247.514-.346 1.057-.228 1.631.139.731 0 1.414-.336 2.075-.04.069-.099.128-.108.218-.386 1.532-1.157 2.876-1.77 4.31a21.138 21.138 0 01-.831 1.729c-.217.386-.504.712-.929.909-.366.148-.712.337-1.068.515.02.078.079.157.06.227-.049.415.455.702.296 1.117-.237.633-.455 1.285-.988 1.76a22.26 22.26 0 01-1.582 1.295c-.375.267-.672.563-.692 1.037-.049.801-.573 1.206-1.226 1.483-.178.069-.416.02-.455.296.079.258.257.07.395.07.277 0 .435.247.307.464-.069.099-.128.198-.208.276-.138.158-.346.287-.405.455-.286.88-.81 1.611-1.443 2.254-.029.039.01.157.02.257h.652c.198.346.029.573-.128.811-.544.73-1.078 1.463-1.631 2.224.158.268.296.495.425.722h.87v-.039c.02 0 .04.02.06.02.059-.02.118-.04.168-.05.02 0 .03.03.049.069-.069 0-.128-.02-.217-.02-.01 0-.02 0-.06.02h-.02c.02.099.06.247 0 .297-.455.563-.999 1.047-1.72 1.245-.494.148-.988.297-1.502.386-.87.158-1.483-.188-1.799-1.009-.316-.82-.474-1.67-.158-2.54.059-.227.108-.455.119-.701.02-.9.02-1.819.079-2.729 0-.287.099-.543.158-.801-.118-.257-.257-.514-.346-.781-.118-.306-.108-.603.03-.929.366-.84.543-1.74.593-2.679.03-.604-.02-1.176-.277-1.76-.296-.73-.355-1.541-.296-2.333a9.48 9.48 0 00-.326-3.537 5.466 5.466 0 01-.247-1.642c-.02-1.196-.514-2.254-1.127-3.281-1.008-.336-2.026-.613-3.143-.544-.91.069-1.838-.02-2.708-.415-.336-.168-.702-.336-.811-.801-.069-.237-.336-.454-.573-.573-.909-.494-1.705-1.166-2.461-1.868-.741-.682-1.557-1.245-2.368-1.829-.331-.228-.687-.404-1.117-.326-.4.07-.702-.089-.86-.475-.02-.068-.02-.177-.074-.227-.711-.662-.801-1.404-.346-2.264.124-.257-.02-.544-.341-.662-.292-.099-.484-.208-.543-.544-.079-.415-.534-.643-.391-1.196.148-.593.346-1.225-.059-1.868.632-.523.786-1.186.766-1.927-.01-.307.08-.672.257-.909.351-.475.405-.84.069-1.384-.237-.396-.464-.851-.593-1.285-.316-1.087-1.285-1.384-2.061-1.897-.069-.04-.237.039-.341.009-.203-.049-.395-.157-.643-.236-.099.168-.212.366-.356.622.08.119.163.247.262.366.153.168.198.365.03.524-.188.197-.4.404-.643.503-.316.129-.672.179-1.082.277-.282-.444-.663-.484-1.201-.306-.475.157-1.018.157-1.404-.376-.109-.148-.415-.218-.638-.218-.271 0-.543.119-.815.158-.499.02-.968-.06-1.171-.623-.173-.445-.504-.683-.958-.83-.341-.089-.657-.287-.998-.415-.529-.188-1.038-.316-1.622-.109-.444.139-.948.08-1.428.109-.317.029-.647.029-.944.128-.573.179-1.097.1-1.641-.108a47.965 47.965 0 00-1.463-.543c-.697-.258-1.325-.218-1.833.414-.519.633-1.201.87-2.021.841-1.077-.03-2.155 0-3.237-.01-.282 0-.559-.079-.835-.119-.193-.029-.396-.138-.578-.118-.86.178-1.656-.069-2.457-.307a4.056 4.056 0 01-.885-.346c-.439-.247-.746-.593-.697-1.166.049-.732-.464-1.156-.884-1.612a2.896 2.896 0 00-1.072-.761c-.672-.247-1.207-.771-1.938-.909-.252-.04-.405-.217-.504-.464-.06-.188-.148-.386-.292-.475a38.057 38.057 0 00-1.843-1.117c-.069-.039-.287 0-.307.039-.054.129-.094.317-.044.435.064.139.242.198.341.317.47.494.939.988 1.379 1.502.282.326.504.702.944.89.197.099.341.336.484.514.341.436.317.554-.227 1.127-.568-.396-1.112-.869-1.888-.89-.237 0-.425-.217-.484-.474-.069-.297-.144-.613-.203-.86-.386-.415-.85-.365-1.27-.495-.583-.167-1.087-.435-1.35-.987.109-.258.257-.188.415-.188.237 0 .381-.276.237-.405-.203-.178-.415-.365-.657-.494-.316-.129-.504-.365-.667-.662-.445-.801-.899-1.581-1.344-2.343-.351-.05-.237.297-.479.425-.099-.217-.193-.454-.316-.74-.252.078-.504.148-.751.237-.074-.04-.153-.07-.188-.129-.667-1.177-1.3-2.372-1.843-3.618-.272-.593-.529-1.245-.282-1.946.04-.109.079-.247.059-.367-.148-1.136.252-2.203.47-3.301.183-.89.371-1.809.173-2.688-.375-.415-.722-.79-1.102-1.206.465-.701.494-1.344-.104-2.075-.099.475-.178.84-.262 1.255-.514-.465-.682-.78-.44-1.255.464-.949.252-1.957.346-2.946.04-.474-.223-.651-.687-.533a3.352 3.352 0 00-2.096 1.473c-.623.959-1.369 1.76-2.175 2.541-.711.682-1.354 1.442-2.041 2.154-.128.129-.341.158-.519.237.015.079.015.139.015.158 0-.02-.015-.079-.015-.148v-.01.01a18.495 18.495 0 012.407-3.123c.415-.426.722-.919.885-1.532.193-.712.568-1.375 1.053-1.987 1.394-1.789 2.832-3.548 4.462-5.149.707-.691 1.522-1.295 2.298-1.908a.908.908 0 01.89-.188c.692.168 1.344.01 1.922-.414a6.338 6.338 0 013.208-1.196c.203-.011.38-.1.396-.406-.297-.296-.736.406-1.053-.158.039-.079.089-.256.188-.345.593-.515 1.078-1.177 1.838-1.514.134-.049.262-.197.316-.315.139-.336.396-.504.667-.683.87-.523 1.745-1.058 2.619-1.592v-.019s.005 0 .02.01c.005 0 .02-.01.02-.01v.019c.163.1.312.148.475-.039.148-.178.282-.425.464-.494.588-.178 1.013-.573 1.493-.929.548-.415 1.151-.781 1.744-1.177v-.029c-.153-.039-.188-.099-.009-.198v-.039l.009.039-.009-.039h.064c.133-.079.277-.168.415.011h.04l-.02.028c.395-.414.776-.84 1.438-.722l-.02-.028h.049c.139-.218.287-.198.43 0h.04l-.02.028a6.79 6.79 0 012.036-1.058 55.652 55.652 0 00-6.148 2.373c.04 0 .099.02.138.02 0 .01 0 .02-.005.02a.695.695 0 01-.148-.039c-.069.039-.134.06-.193.099-.06.118-.153.178-.316.158-.005 0-.02 0-.02.02-.005 0-.02 0-.03.021-.059.197-.193.247-.381.237-.01 0-.02.01-.029.01-.02.02-.05.02-.069.029-.02.039-.049.068-.069.108.015-.03.015-.069.04-.089.005 0 .025-.02.025-.02l.054-.039.015.01-.015-.01h.049c.124-.09.252-.158.381-.237 0-.021.01-.021.01-.04C12.923 44.06 0 63.077 0 85.099c0 30.483 24.701 55.175 55.164 55.175 30.459 0 55.169-24.691 55.169-55.175 0-30.453-24.71-55.154-55.169-55.154m1.266 1.25c0 .02-.074.04-.104.06-.909.04-1.818.108-2.718.139-.138.02-.276-.129-.415-.218.825-.958 1.868-.791 2.886-.652.138.01.307.129.375.257.06.099 0 .268-.02.415m-2.525 11.9c-.089-.068-.168-.138-.247-.207.049-.049.099-.178.138-.168.099.021.178.089.282.138a1.819 1.819 0 00-.173.237m7.201 21.706c.069.327-.188.386-.4.396-.292.021-.579-.039-.865-.049.153-.692.272-.722 1.265-.347m-1.69-.019c-.351.099-.588.138-.776.236-.163.1-.262.297-.415.415-.153.109-.302.04-.4-.108-.069-.099-.119-.197-.178-.297.405-.563.405-.563 1.769-.246m-4.265-1.306c.361.119.736.258 1.087.436.287.158.514.128.687-.119.375.218.079.475.133.672.06.198.139.406.223.663-.904.099-1.7-.03-2.372-.604-.144-.118-.134-.247.049-.315.029-.396-.445-.396-.563-.653.242-.276.499-.158.761-.079m-1.117.494c.04-.021.192.078.183.099-.153.475.276.771.395 1.156.02.089-.069.197-.143.376a24.76 24.76 0 00-1.142-.505c-.247-.475-.153-.889.02-1.363.311 0 .385.414.687.237m-1.429-1.423c.252-.079.543-.079.811-.04.4.06.464.237.455.949-.336-.06-.657-.158-.989-.158-.287 0-.538.355-.884.06.128-.337.267-.682.607-.811m3.504 8.006c.326-.672.905-.73 1.428-.85.341-.06.727-.1.944.396-.642.642-1.324 1.067-2.372.454m2.338-2.56c-.722.396-1.493.701-2.293 1.067-.124-.197-.222-.355-.331-.524-.375.06-.751.179-1.132.188-.425.01-.731-.277-1.018-.573.143.01.282.029.415.049 0-.02.01-.039.01-.049h-.42c-.39.068-.776.147-1.047.197-.568.444-1.048.851-1.562 1.216-.138.099-.41.158-.543.079-.39-.197-.663-.079-.969.169-.163.127-.415.167-.722.266.015-.691.168-1.215.623-1.66.747-.751 1.686-1.166 2.639-1.581.178-.079.396-.06.588-.079.203-.021.415.049.603 0 .949-.268 1.873-.158 2.797.147.247.069.553-.029.825-.029.544 0 1.098 0 1.641.02.223.02.44.109.657.179-.039.542-.435.74-.761.918m.697-1.67c-.069-.05-.114-.219-.079-.297.109-.237.262-.445.41-.683.355.563.355.781 0 .998-.084.03-.247.03-.326-.019m5.876.494c-1.072.148-1.848.673-2.269 1.74-.242-.06-.494-.139-.845-.237-.341.198-.751.415-1.171.633a1.605 1.605 0 01-.554.158c-.415.02-.647-.119-.657-.347-.02-.316.242-.405.455-.465.341-.099.321-.415.499-.682-.203-.089-.396-.188-.653-.286.03-.436.193-.762.677-.791.336-.02.603-.1.895-.276 1.072-.623 2.209-.515 3.351-.218.326.059.381.356.272.771m1.206-.395a.753.753 0 01-.425-.355c-.039-.079.044-.336.149-.396.256-.158.558-.296.854-.376.509-.128.964-.336 1.285-.81.41.415.079.643-.089.89h.02l-.029.039c.009-.02.009-.02.02-.039-.44.316-.885.652-1.334.949-.128.078-.321.138-.439.098m1.001 5.882c.415-.307.415-.307 1.102-.415-.543.78-.543.78-1.102.415m3.529-6.782c-.06.01-.129-.01-.198-.01 0 .01-.02.02-.04.03 0-.021-.01-.021-.01-.03-.82-.316-.82-.326-1.255-1.057.178 0 .396-.05.435.009.237.376.831.475.82 1.048h.02l-.01.03s.01-.03.02-.03h.02c.04-.039.089-.089.138-.099.06-.02.119.02.178.02-.02.04-.08.079-.119.099m3.045 3.974c-.139-.059-.248-.078-.257-.128-.099-.979-.356-1.907-.949-2.709-.02-.019 0-.049.01-.099-.01 0-.01.01-.01.01 0-.01 0-.019-.02-.039-.534-.158-.564-.168-1.226-.791.06-.218.119-.455.168-.691-.01-.021-.01-.021-.02-.021h-.01l-.02-.02c-.02.02-.02.02-.059.02-.464.1-.484.1-.455-.375-.02-.02-.02-.02-.04-.02 0-.021-.02-.04-.02-.05-.079 0-.138-.021-.218-.03l.099-.138c.04.049.079.108.119.168.02 0 .04.01.06.01v.06c.178.119.355.247.533.365h.04v.03c.702.257.949.83 1.058 1.482.02.021.02.021.029.021v.009c.237-.089.484-.089.613.148.476.861.813 1.74.575 2.788M31.645 35.228h-.005.005m5.723 15.083c-.588 0-.603.01-.954.534.465.041.637-.394.954-.534m6.301 1.958c.188-.198.371-.415.559-.634-.455.001-.578.258-.559.634m-1.186-2.303c-.332-.188-.593-.128-.826.148.104.583.514.751 1.117.85-.049-.386.124-.771-.291-.998M22.264 71.544c.074.227.163.435.237.651.376.109.717.208 1.048.307-.04-.504-.04-.504-.692-1.463-.622-.01-.721.05-.593.505M34.422 38.44c-.237-.286-.534-.029-.781-.108-.292-.099-.543-.296-.835-.376-.168-.039-.396.06-.346.347.78.365 1.255.405 1.962.128m-6.603 1.433c-.326-.247-.326-.247-.652-.147.252.068.445.117.652.147m21.983 3.123c.643-.108.643-.108 1.137-.543-.544-.158-.795.178-1.137.543m-21.815-3.39c.02-.02.06-.028.104-.028-.01-.03-.02-.07-.044-.1-.015.029-.069.05-.069.079 0 .02.009.029.009.049m1.859-.929a.621.621 0 00-.03-.089c-.124.03-.262.05-.385.089-.03.02-.05.06-.114.139.099.029.148.06.178.04.114-.04.228-.109.346-.179m.84.988c-.144-.188-.193-.336-.277-.346a3.975 3.975 0 00-.692-.108c-.292-.02-.341.118-.237.583.341-.029.672-.068 1.206-.129" fill="#414D84"/></svg>